<?xml version="1.0" encoding="UTF-8"?>
<svg width="297mm" height="210mm" version="1.1" viewBox="0 0 1052.3622 744.09448" xmlns="http://www.w3.org/2000/svg">
 <path d="m150.2 392.73c-3.0751 0.12932-5.5018 2.6593-5.503 5.737v63.853c-3e-5 3.0422 2.3719 5.557 5.4089 5.7346l234.88 13.682c3.2978 0.1914 6.0771-2.4313 6.0772-5.7346v-63.85c4e-5 -3.0423-2.3718-5.557-5.4089-5.7346l-234.88-13.682c-0.19119-0.0111-0.38282-0.0129-0.57418-5e-3zm5.9831 11.826 223.4 13.013v52.343l-223.4-13.011zm655.04-378.17c-1.0732-0.0025-2.1475 0.05904-3.2183 0.18577-4.0773 0.5464-7.7151 2.0148-10.75 3.9638-6.9901 4.5864-11.338 10.933-14.077 16.106-1.1537 2.1324-2.12 4.2113-2.9578 6.2075 2.7808 0.3275 5.5492 0.66692 8.304 1.0181 0.60953-0.89084 1.2336-1.7795 1.8866-2.6562 3.143-4.1431 7.2676-9.0576 12.239-11.539 2.0482-1.0525 4.3096-1.801 6.5163-1.9059 2.308-0.17624 4.8392 0.34776 7.3631 1.3462 8.1388 3.2672 16.836 6.6545 25.894 10.07 15.885 5.9895 30.881 11.313 43.855 15.631 3.3951 1.0091 6.8466 3.4235 9.9759 5.6695 4.1203 3.025 8.0083 6.4538 11.052 9.1749 1.8103 1.6203 3.3192 2.9954 4.7141 4.2581 0.36598 0.16359 0.74014 0.31464 1.1049 0.48011 2.6846 1.2177 5.294 2.5018 7.8649 3.8239-0.30402-0.82041-0.72956-1.7814-1.3703-2.9723-1.4319-2.6617-3.7765-6.3313-6.9964-10.511-2.6322-3.4229-6.1035-7.5216-10.35-11.476-3.0349-2.8932-7.0312-6.1862-12.234-8.4222-12.596-5.3234-27.372-11.224-43.257-17.214-9.0583-3.4154-17.827-6.6148-26.097-9.5344-3.0374-1.1102-6.2426-1.6946-9.462-1.7033zm109.77 61.834c0.074 0.19964 0.18482 0.44127 0.23884 0.61761 0.14313 0.46715 0.21513 0.85014 0.21713 1.146 1e-3 0.15068-0.0149 0.27718-0.0507 0.38119-0.0918 0.10722-0.13483 0.16815-0.1544 0.20265-0.0193 0.03397-0.0149 0.04274-0.0145 0.04348-5.8e-4 -5.93e-4 -7e-3 -0.0062-0.0458 0.0025-0.0385 0.0086-0.10993 0.03384-0.23884 0.09165-0.10932 0.0062-0.23579-0.01297-0.37877-0.05311-0.28177-0.07918-0.62868-0.24658-1.0398-0.49698-0.79227-0.4825-1.8274-1.2753-3.0856-2.3354-1.3186-1.1108-2.7786-2.42-4.4174-3.9035-16.151-7.2187-33.45-12.629-52.352-17.262-21.001-5.1558-42.959-9.0635-66.514-12.195-1.5354-0.20427-3.0863-0.39433-4.6297-0.59108-1.9078 2.7883-3.5673 5.5395-4.965 7.9469 2.8556 0.31969 5.7001 0.65136 8.5283 0.99638 23.367 2.8524 45.071 6.4449 65.812 11.257 19.113 4.4421 36.397 9.5704 52.446 16.574 7.0435 3.0737 13.627 6.4195 19.715 10.28 5.4538 3.464 10.392 7.225 14.593 11.53 6.9248 7.0978 12.871 14.078 17.479 21.691 3.0581 5.029 5.6485 10.44 8.0169 15.566 2.8308 6.1337 5.424 12.255 7.7756 18.007 2.97 7.5986 5.7659 14.737 8.3788 21.394 8.757 10.913 13.9 22.338 16.852 31.807 5.0948 16.395 5.0918 27.43 5.4524 31.983 0.2228 0.2677 0.4743 0.5853 0.7045 0.86611 0.3221-3.7811 1.5712-15.246-3.3101-33.67-2.5778-9.7698-7.3982-21.612-16.082-33.013-2.3478-6.5904-4.8619-13.626-7.5296-21.083-2.2327-5.864-4.7149-12.121-7.462-18.434-2.275-5.2356-4.8379-10.868-7.9735-16.282-4.778-8.2122-10.873-15.693-17.87-23.088-4.5474-4.8029-9.8001-8.9723-15.513-12.714-4.0092-2.6303-8.223-5.0192-12.584-7.2618zm88.323 165.55c-0.077 0.90256-0.1177 1.4982 0.01 1.4958-0.4247 9e-3 -0.591-0.80731-0.7141-2.3619-4.4181-5.3072-7.3927-8.0211-8.3016-7.4282-1.1876 0.77464 1.4596 7.2619 6.7214 17.58 1.421 2.7882 3.0948 5.9878 4.9023 9.3269 5.1175 9.5157 10.568 21.64 13.848 35.723 1.2763 5.4297 2.2183 11.103 2.8419 17.047 0.1184 1.1276 0.2128 2.251 0.3064 3.3728-2.0972-0.33326-3.782-0.0965-4.9433 0.59589-1.5062 0.80806-2.5598 1.661-3.199 2.4125-1.0419 1.0996-1.8735 2.1944-2.5525 3.2159-2.147 3.1866-3.807 6.4654-5.3172 9.7153-2.3317 4.9684-4.3917 10.042-6.4005 15.315-6.2024 16.266-11.468 32.975-16.897 51.392-0.24413 0.83606-0.47271 1.6691-0.69 2.5018-1.2573 4.8184-2.1049 9.5908-2.965 13.964-1.3546 6.7969-2.6703 13.177-4.4077 19.361-1.83 6.4209-3.8563 12.272-6.8034 17.363-2.7737 4.6296-5.9465 8.5224-9.8432 10.422-38.871 20.157-68.112 36.278-79.173 43.711 0.19232 1.0876 0.39146 2.1704 0.56935 3.269 11.985-3.9485 43.022-17.708 83.571-36.98 6.4847-3.2568 11.472-8.5214 14.946-14.478 3.7655-6.2824 6.3394-13.039 8.3571-19.954 1.9808-6.7046 3.4508-13.418 4.8516-20.28 0.93909-4.5455 1.75-9.1131 2.8396-13.279 0.1889-0.7221 0.3874-1.4338 0.5959-2.1351 4.1513-14.118 7.959-26.883 12.063-39.329 0.037-0.41738 0.1352-0.7113 0.2967-0.8854 1.1809-3.5646 2.3807-7.1089 3.6285-10.649 1.8334-5.1974 3.6348-10.062 5.6453-14.753 1.0247-2.3618 1.9866-4.5364 3.0567-6.5115-0.1521-0.96422-0.3285-1.9018-0.5597-2.7889-0.1857-0.69443-0.3569-1.2857-0.5645-1.7274-0.1992-0.34259-0.2234-0.46023-0.1448-0.26297 0.073 0.28454 0.605 0.56094 1.6357 0.97949 1.1607 0.11253 1.8496 0.10561 2.1424-0.15681 0.2338-0.17701 0.2306-0.0584-0.111 0.23643-0.4009 0.44086-0.8103 1.0693-1.3027 1.8384-0.3802 0.6047-0.744 1.2333-1.0953 1.8818 0.1811 1.1482 0.3246 2.3335 0.4535 3.5392 0.6731 6.4856 0.7545 13.272 0.7938 19.139 0.047 7.7828-0.092 15.737-0.181 21.645-0.053 3.5422-0.096 6.645-0.1182 9.4596 0.093-5.4993 0.4213-12.297 0.9481-20.106 0.635-9.5038 1.6102-22.289 1.4958-34.174-0.043-4.4047-0.2353-8.9293-0.6176-13.508 1.9613 0.63811 3.2806 1.5454 3.9614 2.5597 0.9159 1.2032 1.4673 2.2756 1.7443 3.1387 0.4378 1.1935 0.7209 2.3039 0.9119 3.3028 0.5423 2.7708 0.7524 5.4146 0.8541 7.8263 0.3251 7.1659-0.046 14.166-0.4729 20.135-0.5771 8.1691-1.4333 15.717-2.2581 21.848-0.998 7.422-2.0423 13.419-2.953 17.563-0.5532 2.4538-1.0547 4.2849-1.4958 5.4789 0.07 0.24019 0.1382 0.47895 0.2075 0.72135 1.8172-1.9276 5.0785-14.645 8.4222-33.703 1.7206-9.7706 3.5223-22.26 3.7974-35.288 0.1245-5.8777-0.083-11.999-0.7455-18.251-0.6868-6.4776-1.8246-12.717-3.4041-18.688-4.1384-15.53-11.049-28.266-17.778-37.665-2.2545-3.1373-4.3055-5.9277-6.2654-8.4946-1.4915-1.953-2.8602-3.6755-4.1423-5.24zm20.116 157.33c-0.1693 0.17964-0.3298 0.29914-0.4728 0.2871-0.053-5e-3 -0.1039-0.0226-0.1544-0.041-0.2281 0.42678-0.4384 0.66333-0.6249 0.64416-0.6234-0.0641-0.9657-2.6693-1.047-7.45-0.01-0.28395 1e-4 -0.70659-0.01-1.0036-6.1895-19.037-12.52-29.462-13.09-29.255-0.083 0.0303-0.1471 0.094-0.2099 0.16164-0.098 0.29576-0.1991 0.5893-0.2967 0.88541-0.5197 5.926 10.819 36.033 13.52 80.996 0.9685 16.338 0.6627 34.939-3.421 53.378-1.4005 6.308-3.2686 12.649-5.6694 18.859-4.246 10.982-9.8778 20.835-16.789 29.218-2.087 2.6675-5.3152 4.6587-8.7599 6.0772-3.9504 1.5914-8.3309 2.2979-12.663 2.4753-9.7176 0.24612-18.62-1.8331-25.255-6.3788-1.7434-1.104-3.2858-2.853-4.6779-4.7479-1.6742-2.3212-3.0251-4.9706-4.1882-7.6019-2.903-6.548-4.7056-13.652-5.9976-19.305-2.4409-16.118-4.47-25.611-5.7153-25.575h-0.01c-1.2419 0.0876-1.527 9.7158-0.9795 26.429 0.63258 6.0724 1.8274 13.791 4.5356 21.638 1.0718 3.0994 2.4874 6.3968 4.4656 9.6164 1.6163 2.669 3.8025 5.3671 6.7503 7.6357 8.479 6.3185 19.505 9.7058 31.264 9.5874 5.3672 0.013 11.055-0.77415 16.632-2.7913 4.9959-1.7782 9.9131-4.814 13.836-9.3366 7.9349-9.3783 14.367-20.34 19.081-32.473 2.6658-6.8619 4.6804-13.837 6.1182-20.758 4.1916-20.132 4.0378-39.816 2.275-56.835-1.784-17.343-4.9765-32.194-8.4511-44.338zm-2.304-7.5633c0.018 0.0567 0.037 0.11438 0.056 0.17129-0.021-0.48163-0.047-0.92172-0.06-1.4451 0 0.39822 0 0.89682 0.01 1.2738zm0-1.2738c-0.017-1.6789-0.038-3.3053-0.024-5.3703-0.028 1.9879-0.016 3.7577 0.024 5.3703zm-0.024-5.3703c0-0.16962 0.01-0.40673 0.01-0.57901 0 0.19776 0 0.38468-0.01 0.57901zm0.085 6.8154c0.1923 4.5238 0.6973 7.3012 1.6212 7.6381 0.1341-0.25091 0.2721-0.56755 0.4198-0.96743-0.6747-2.3291-1.3543-4.5527-2.041-6.6707zm-140.88 118.06c-3.2578 1.0733-5.1892 1.4631-5.4234 0.99155-0.25551-0.51437 1.4912-2.0009 4.854-4.2606-1.7694-10.006-4.1198-19.557-6.9288-28.54-5.3582-17.162-12.211-32.008-19.964-44.676-2.2714-3.721-4.58-7.1742-6.9192-10.393-0.0145 0.0834-0.0317 0.20935-0.0458 0.28711-0.094 0.51689-0.17957 0.90636-0.25572 1.1677-0.0388 0.13286-0.0755 0.23068-0.10858 0.29674-0.0167 0.0333-0.0331 0.0584-0.0483 0.0747-0.0151 0.0124-0.0272 0.0181-0.041 0.0169h-2e-3c-0.0138-1e-3 -0.0259-9e-3 -0.0385-0.0241-0.0124-0.0188-0.0236-0.0463-0.0337-0.082-0.0203-0.0708-0.0361-0.17402-0.0506-0.31121-0.0284-0.26848-0.0478-0.66744-0.0579-1.1894-5e-3 -0.2577 4e-3 -0.81442 2e-3 -1.1363-6.538-8.8457-13.296-15.852-20.089-21.324-5.7408-4.6207-11.147-7.7948-15.954-9.9518-10.504-4.715-16.78-4.1046-16.856-3.6816-0.17265 0.95678 5.7482 1.8972 14.924 7.4017 4.2574 2.5543 8.9425 5.9648 13.993 10.717 8.3759 7.8727 16.454 18.189 24.294 32.374 6.8372 12.407 12.803 26.762 17.462 43.341 4.2325 15.089 7.237 31.668 8.222 49.329 0.89245 16.115 0.10735 33.155-3.3172 50.181-3.1644 15.705-8.5917 31.52-16.984 45.976-0.94671 1.6341-1.9313 3.251-2.9554 4.8492-8.1459 12.713-18.361 23.679-29.848 32.359-15.711 11.921-33.858 19.617-51.563 24.287-10.323 2.677-20.485 3.7014-30.036 2.3981-8.4993-1.1239-16.462-4.0875-23.262-8.2654-7.1033-4.3392-13.138-10.081-18.113-16.056-5.5883-6.7207-10.042-14.037-13.628-20.953-8.3557-16.095-13.138-32.419-15.918-42.755-2.0741-9.5841-3.6735-15.991-4.7141-18.801-0.44872 0.20931-0.89543 0.42003-1.3486 0.62243-0.0502 3.1631 0.45242 9.6009 1.4716 19.035 1.7173 10.893 5.3469 27.776 13.324 45.382 3.3985 7.4926 7.8176 15.525 13.655 23.165 5.2017 6.8169 11.768 13.488 19.867 18.837 3.2187 2.1152 6.6866 3.9769 10.34 5.5658 7.392 0.92374 14.083 1.3852 19.402 1.6984 11.87 0.69894 18.979 0.88846 19.127 2.3112 0.0392 0.37783-0.6848 0.86914-1.971 1.3993 4.8708-0.44559 9.7574-1.2665 14.618-2.468 18.989-4.6112 38.636-12.706 56.065-25.655 12.721-9.4861 23.986-21.479 32.934-35.445 1.1246-1.7553 2.2067-3.5307 3.2449-5.3269 9.1523-15.865 14.958-32.973 18.174-49.836 3.487-18.255 4.0873-36.308 2.8299-53.247-0.49751-6.736-1.2916-13.3-2.3257-19.686zm-125.54 191.66c-6.6698 0.61018-13.309 0.49568-19.793-0.50422-5.915-0.9331-11.536-2.6308-16.765-4.9047-8.4253-1.0529-17.773-2.7108-27.206-5.5416-10.249-3.0722-20.989-7.6544-30.832-14.28-3.883-2.6135-7.4795-5.4461-10.774-8.4873-11.359-10.388-18.978-22.96-23.853-34.357-8.7033-20.337-9.4516-36.131-11.32-40.437-0.27449 6.7e-4 -0.54805 6e-3 -0.82267 5e-3 -0.40435 0.26341-0.82188 0.50959-1.2304 0.7672-1.5117 5.3487-3.3572 21.243 3.8963 43.226 4.2951 13 12.138 27.503 24.98 39.73 3.7443 3.5362 7.832 6.8048 12.234 9.7756 11.185 7.5486 23.242 12.397 34.678 15.235 19.797 4.9029 37.976 4.4967 49.838 3.2063 8.3763-0.91123 14.158-2.2743 16.97-3.4331zm-690.73-449c4.9546-4.245 10.45-8.0097 16.186-11.455 9.3931-5.6162 19.43-10.265 29.689-14.376 22.26-8.9151 45.543-15.22 68.755-20.355 19.899-4.3955 39.86-7.855 59.711-10.579 9.2321-1.3659 18.417-2.7259 27.563-4.0772l0.14233-0.0868 0.41496-0.25573c0.54445-0.33452 1.0878-0.66813 1.6333-1.0036 0.2502-0.2969 0.50496-0.59533 0.75995-0.89505 0.9777-1.1493 1.9635-2.2951 2.9578-3.4403 3.6483-4.202 7.3522-8.3506 11.088-12.451 12.349-13.553 24.991-26.538 37.993-38.897 16.035-15.234 32.352-29.395 49.727-41.747 8.3403-5.9272 16.816-11.37 25.616-15.986 7.8425-4.097 15.785-7.5562 23.942-9.6068 5.5983-1.4216 11.214-2.7313 16.832-3.9566-16.45 0.22642-25.752 0.18013-25.793-0.60796-0.0437-0.84346 19.425-3.0481 54.22-4.8782 5.783-0.98516 11.551-1.9034 17.286-2.7551 24.54-3.6416 48.858-6.1795 72.543-7.9855 55.293-4.2142 107.6-4.6078 156.31-2.3305 20.697 0.96812 40.526 2.4382 59.72 4.4512 0.66936-2.432 1.5946-5.2319 2.883-8.3016-19.958-2.3504-40.591-4.1052-62.133-5.31-44.01-2.4628-90.98-2.7188-140.45 0.05793 0.28359 0.29839 0.42714 0.57575 0.3836 0.82509-0.30939 1.772-9.1052 1.8753-22.803 0.62968-22.22 1.6454-44.994 3.9534-68.019 7.2376-10.798 1.5391-21.733 3.3013-32.721 5.3703-0.71946 0.46202-1.356 0.84686-1.8987 1.1291-0.55226 0.28724-1.0186 0.47541-1.392 0.5573-0.19009 0.04212-0.35866 0.05645-0.50181 0.04101-0.0721-0.0074-0.13766-0.02285-0.19783-0.04583-0.0625-0.02384-0.11945-0.05583-0.16887-0.09647-0.0494-0.04064-0.0901-0.0877-0.12546-0.14476-0.0341-0.05497-0.0611-0.11796-0.082-0.18817-0.0328-0.11043-0.0363-0.25372-0.0362-0.40048-8.8474 1.7324-17.721 3.6628-26.581 5.8649-9.3192 2.3393-18.108 6.0728-26.451 10.427-9.4004 4.8881-18.341 10.561-26.996 16.671-18.022 12.717-34.822 27.166-51.153 42.594-13.266 12.524-26.15 25.671-38.714 39.38-3.802 4.1482-7.582 8.3548-11.315 12.63-1.0172 1.1649-2.0335 2.34-3.047 3.5247-0.0873 0.10215-0.17533 0.2061-0.26297 0.3088 0.37506-0.0305 0.75413-0.0611 1.1291-0.0917l-0.10858 0.0458c-0.10475 0.0451-0.20881 0.0899-0.31363 0.13511-0.41259 0.1778-0.82674 0.35651-1.24 0.53558 0.17849-0.21054 0.35569-0.41686 0.53318-0.62485-7.5352 0.61428-15.092 1.229-22.683 1.8456-20.179 2.7156-40.506 6.1934-60.811 10.632-23.614 5.1544-47.535 11.613-70.692 20.828-10.684 4.2486-21.303 9.1689-31.44 15.197-8.8275 5.2264-17.422 11.451-24.835 19.218-9.9853 10.554-17.767 22.982-23.501 36.224-5.8345 13.47-9.7057 27.617-12.408 41.889-0.51335 2.712-0.9887 5.4272-1.4282 8.1472-4.2747 26.453-5.2366 53.307-6.7672 79.04-1.3122 21.115 1.4749 42.631 9.8432 62.171 6.405 14.832 15.965 28.097 27.686 38.869 8.6252 7.9259 18.336 14.553 28.709 19.71 3.1333 1.56 6.3551 2.9984 9.6743 4.263 0.91057 0.34694 1.846 0.68394 2.8082 1.006 0.25206 0.0844 0.51668 0.17193 0.79131 0.25815 11.658 6.0601 23.212 13.403 36.912 17.824 7.126 2.2772 14.675 3.5022 22.314 3.2787 8.3945-0.23833 16.473-2.4124 23.8-5.8046 115.65 13.791 223.93 26.603 323.12 38.229 20.262 7.9043 40.978 13.863 62.34 14.591 21.275 0.8604 42.038-4.8354 59.177-15.643l-1.1e-4 2e-5c0.36357-1.2864 0.70851-1.9788 0.90229-1.9807 0.45537-5e-3 0.81813 0.44198 1.1508 1.2087 15.671-0.0383 31.136-2.5919 45.158-8.8034 0.0571-0.0253 0.11191-0.0542 0.16888-0.0797 0.0224-1.4061 0.14214-2.2296 0.39324-2.2702 0.22741-0.0367 0.55319 0.5617 0.95536 1.6478 13.139-6.1289 24.366-15.186 33.39-25.44 11.242-12.783 19.742-27.309 26.808-41.267 9.4332-18.635 17.288-38.042 24.181-55.527-1e-3 5e-3 4e-3 -0.0194 2e-3 -0.0145-1e-3 2e-3 7e-3 -0.0387 7e-3 -0.0362 0.0716-0.25906 0.049-0.18244 0.12068-0.44149 0.0388-0.18309 0.0782-0.36681 0.11821-0.55248 0.15357-0.71236 0.31234-1.4263 0.47287-2.1399 0.5927-2.6348 1.2148-5.2516 1.8552-7.8432 2.1712-8.7838 4.537-17.249 7.1098-25.431 3.3371-10.602 6.8976-20.455 11.129-29.776 4.1398-9.0406 8.3732-17.105 14.323-23.583 8.3963-9.1653 16.236-16.842 25.363-22.461 3.139-1.9296 6.263-3.5119 9.4861-4.4704 2.5459-0.75001 5.0723-1.1325 7.4572-0.89023 2.0961 0.19665 4.1217 0.87255 5.8625 1.918 1.8613 1.1009 3.4742 2.6689 4.8444 4.386 3.4951 4.3644 5.5045 9.9221 6.9674 14.96 1.9432 6.7863 2.9468 13.665 3.585 19.52 0.79355 7.3042 1.0824 14.136 1.2087 19.464 0.14835 6.2732 0.0865 11.604 0.0579 14.941-0.0124 1.42-9e-3 2.3343-5e-3 3.2569 0.2259 0.30564 0.45497 0.58976 0.68033 0.89988 0.17044-0.98285 0.35978-2.3117 0.5573-4.0844 0.38196-3.4279 0.81055-8.5819 1.006-15.006 0.16453-5.3978 0.18557-12.265-0.33775-19.754-0.41584-5.983-1.2043-13.065-3.0133-20.244-1.318-5.312-3.3572-11.369-7.2376-16.615-1.5539-2.0929-3.5079-4.0683-5.9083-5.6068-2.2932-1.4528-4.9467-2.4164-7.7539-2.7527-3.1443-0.35878-6.3123 2e-3 -9.3366 0.85163-3.7984 1.0579-7.379 2.7418-10.806 4.772-9.8764 5.842-18.338 13.715-26.999 22.897-6.7029 7.1328-11.485 15.688-15.814 24.902-4.5285 9.5606-8.3533 19.62-11.901 30.347-2.7433 8.2877-5.2733 16.862-7.6019 25.754-0.30173 1.152-0.58368 2.3335-0.87816 3.4982 0.0915-0.0199 0.18352-0.0379 0.27503-0.0579l1.8649 9.5272c-1.7281 0.30043-3.4585 0.58783-5.1894 0.87576-6.7326 16.314-14.245 33.969-23.042 50.76-7.0983 13.551-15.376 27.422-26.031 39.218-8.7976 9.7457-19.616 18.249-32.051 23.578-13.637 5.8661-29.006 8.2335-44.912 8.386-5.3563 3.3587-11.109 6.1994-17.136 8.4922 0.75272 0.96643 1.3713 1.7899 1.7539 2.3715 0.23511 0.35744 0.39932 0.6425 0.48975 0.85405 0.0456 0.1066 0.074 0.19601 0.082 0.26537 4e-3 0.0348 4e-3 0.0639-2e-3 0.0893-6e-3 0.0261-0.0178 0.049-0.0337 0.0651s-0.0367 0.0254-0.0628 0.0314c-0.0253 6e-3 -0.0543 7e-3 -0.0893 2e-3 -0.0695-7e-3 -0.15818-0.034-0.26537-0.0797-0.21283-0.0905-0.49902-0.25554-0.85646-0.49457-0.70436-0.47102-1.6793-1.2245-2.9168-2.263-0.0358-0.03-0.082-0.0709-0.11821-0.10129-12.026 4.2846-25.082 6.3918-38.292 5.9469-20.088-0.81162-40.029-6.7896-60.193-14.639-100.26-12.221-209.99-25.477-327.33-39.543-7.2266 2.9777-14.873 4.9481-22.487 5.2039-6.0626 0.1993-12.266-0.85731-18.29-2.7672-12.166-3.8154-23.456-11.123-36.239-17.66 0.01112 4e-3 -0.05694-0.0206-0.04583-0.0169-0.04262-0.0162-0.08474-0.032-0.12787-0.0483-0.16869-0.0641-0.34174-0.1291-0.51629-0.19543-0.18084-0.0569-0.37106-0.12068-0.57177-0.18817-0.7658-0.25725-1.5442-0.5411-2.3378-0.8444-2.8903-1.1047-5.747-2.3913-8.579-3.8046-9.3564-4.6765-18.115-10.674-25.86-17.817-10.465-9.6505-19.023-21.542-24.688-34.738-6.48-14.954-9.174-31.602-9.0663-48.439l-3.9132-1.5223 0.93366-2.7841 1.4861-2.5356 1.6502 0.86368c0.03236-0.71857 0.05929-1.4383 0.10129-2.1568 0.89455-14.584 1.5979-29.33 2.7599-43.969-2.6806-3.4388-2.3083-5.733-2.1713-5.7636 0.2877-0.0641 0.67562 1.3265 2.3667 3.3148 0.87948-10.564 2.0133-21.066 3.6912-31.392 0.42482-2.6144 0.88347-5.2182 1.38-7.8118 0.24702-1.2907 0.51143-2.574 0.63782-3.7186 0.95616 6.9321 4.434 13.061 9.5431 17.719 5.7796 5.0874 12.451 8.4211 18.625 11.057 7.4545 3.228 14.997 5.7375 22.164 7.8335 9.9628 1.8272 19.386 3.596 28.297 5.31 9.2333-22.96 16.799-42.267 22.765-57.974-4.239-20.305-7.4041-34.439-9.3486-41.913-0.58979-0.0359-1.1754-0.0768-1.7636-0.11339 0.88684 7.4516 3.1004 21.593 6.5356 41.612-5.8963 14.885-12.779 32.838-20.565 53.768-7.6428-2.5341-15.586-5.2212-23.843-8.07-6.8763-2.2064-14.009-4.7649-20.89-7.9469-5.8178-2.7262-11.709-5.7392-16.164-9.9542-3.5238-3.1892-5.6926-8.1493-6.4367-13.392-2.0393-14.917 1.8144-30.862 9.1218-46.311 0.84888-1.8267 2.209-3.6465 3.7491-5.6478 1.677-2.1373 3.5154-4.2148 5.462-6.2992 1.5328-1.6389 1.5896-1.5843 3.2166-3.1766l4.9732-0.35962c1.8919 0.59123 3.5879 0.45385 5.3351 0.79992 5.3397 1.0696 7.4463 1.3215 12.75 1.916 12.157 1.3709 24.282 2.2861 36.755 3.0615-0.45721-3.8417-0.58375-6.0158-0.29916-6.07 0.29484-0.0562 1.0056 2.1201 2.0627 6.1834 4.1156 0.25086 8.2662 0.49041 12.478 0.72377 23.307 1.2941 46.834 2.2325 71.626 3.0712 27.95 0.94568 56.3 1.6998 85.863 2.3739 39.161 0.89299 78.826 1.6066 120.18 2.2582 22.971 0.36191 45.938 0.69698 68.263 1.0157 7.6527 0.10931 14.071 0.19953 21.416 0.30156 0.63394-0.72137 1.1013-1.1827 1.2208-1.1049 0.10277 0.067-0.0111 0.46423-0.29433 1.117 51.183 0.7105 96.779 1.3049 144.96 2.3257 0.88781-0.0464 1.99 0.39241 3.0639 1.0229 1.2368 0.73935 2.4023 1.9553 3.5513 3.3727 2.418 3.0633 4.1321 6.7945 5.2135 10.702 2.5402 9.1666 2.0848 19.157 0.0435 28.577-2.1945 9.9133-6.2304 19.268-11.573 27.522-5.9661 9.5874-17.095 15.668-28.068 19.829-12.728 4.6851-26.613 6.7716-39.686 8.3643-15.798 1.9001-31.462 2.7526-45.995 3.1894-18.687 0.55686-36.026 1.0034-52.193 1.3534-3.1054-22.061-5.9734-41.368-8.5621-57.829 17.061-26.967 27.364-44.078 29.25-48.429-0.31723-5e-3 -0.60868-7e-3 -0.92642-0.0123-3.552 4.0418-14.972 20.336-33.086 47.407 2.5293 17.447 5.7446 38.439 9.6816 63.033 17.069 0.85787 35.613 1.8544 55.853 3.006 14.746-0.13411 30.722-0.70563 47.016-2.3764 13.335-1.3458 27.937-3.3595 42.027-8.2461 12.264-4.1329 25.167-11.31 33.503-23.498 6.1206-9.1992 10.78-19.67 13.394-30.893 2.5361-10.697 3.0855-22.427 0.16164-33.87-1.3322-5.196-3.6623-10.281-7.0856-14.767-1.6418-2.1894-3.7385-4.2886-6.3643-6.0266-2.1978-1.4608-4.8244-2.4584-7.725-2.7817l-2.1e-4 3.3e-4c-0.035 0.0305-0.0688 0.0587-0.10376 0.0893 0.0335-0.0304 0.0655-0.0589 0.0989-0.0893-0.39464-0.0439-0.79463-0.0756-1.199-0.0941-54.156-1.581-107.3-2.4878-167.4-3.4741-22.638-0.37158-44.981-0.71892-68.258-1.0856-41.652-0.65621-80.686-1.2831-120.13-2.0314-29.604-0.56168-57.793-1.1613-85.759-1.9156-24.788-0.66878-48.183-1.407-71.421-2.4704-17.596-0.80753-34.026-1.6415-50.439-3.2955-5.2296-0.53086-10.239-1.0888-15.09-2.0048-0.51046-0.0976-1.4054 0.21652-1.891 0.11537m380.46-202.33c1.4683-0.28751 2.9363-0.57547 4.4029-0.85162 0.69614-0.44704 1.4701-0.96745 2.3209-1.5561 3.0778-2.1282 7.7333-5.5346 13.062-8.772 4.7588-2.8768 10.628-6.0289 16.989-7.9493 5.6848-1.6991 12.153-2.5986 18.28-1.4282 1.3027 0.23435 2.6148 0.46874 3.9373 0.69964 17.704 3.0911 33.888 5.2829 46.152 6.3981 1.7774-0.13163 3.5593-0.26764 5.3293-0.39084 5.7321-0.3992 11.423-0.74584 17.09-1.0639-3.5361-3.7206-31.752-11.054-66.446-17.112-1.3225-0.2309-2.6371-0.45696-3.9421-0.67793-8.8148-1.4379-17.218 0.01334-24.191 2.7479-7.6919 3.0034-13.936 7.3101-18.63 11.334-5.3603 4.5767-9.154 9.0954-11.445 12.463-1.2513 1.8381-2.0927 3.3851-2.5404 4.5573-0.23051 0.60348-0.35617 1.1039-0.37877 1.4958-2e-3 0.04138 0.01 0.06732 0.01 0.1061zm327.26-1.3607c-0.26821 0.97446-0.52785 1.9406-0.71412 2.7696-0.94181 5.1709-1.0556 8.1578-0.20506 8.4463 0.85012 0.28845 2.5807-2.1498 4.9481-6.7334 0.6115-1.0699 1.3685-2.3989 2.193-3.8191-2.0636-0.23102-4.1435-0.44547-6.222-0.66345zm-305.86 8.62c-9.4497 1.6098-18.943 3.4177-28.427 5.4861 19.433-0.26748 48.988-0.92365 87.156-1.2811 70.263-0.65795 169.36-0.10475 281.78 8.7768-5.7109 22.896-8.0247 43.816-12.408 67.153-1.5558 11.178-3.4224 22.396-6.2582 33.276-0.96963 5.6144-2.2074 11.154-3.8601 16.473-1.1496 3.6999-2.4941 7.2738-4.0796 10.683-35.117-3.6734-74.034-8.4483-106.92-12.207-40.265-3.9157-77.106-7.0527-113.42-9.0953-170.36-9.5728-285.78 8.3412-285.75 8.7551 0.34247 4.3404 116-9.3253 285.07 2.2316 36.195 2.4723 72.634 5.9043 112.91 10.053 29.105 2.5215 61.157 5.4047 92.791 7.8601 5.069-1.8513 10.143-3.777 15.192-5.8625l1.5416 3.8866c-2.5084 0.95483-4.9402 1.84-7.3317 2.6924 3.6083 0.27027 7.2176 0.54301 10.801 0.79854 2.6484-4.3358 5.0176-8.7942 7.1556-13.339 1.8396-3.9104 3.4804-7.8679 4.9892-11.836-0.0242-9e-3 -0.048-0.0203-0.0724-0.0289 0.0243 7e-3 0.048 0.0187 0.0724 0.0266 1.012-2.6618 1.9771-5.329 2.8637-7.9928 2.9952-11.596 4.9342-23.281 6.4825-34.7 2.4574-26.438 2.9758-49.387 6.6345-73.636-115.56-10.772-215.4-11.952-287.33-10.345-23.064 0.51543-43.038 1.3009-59.585 2.1713zm330.93 124.5v2e-3c4.8713 1.7711 8.8208 7.3317 12.188 15.39 3.3887 8.109 6.1939 18.765 8.7189 30.668 3.7937 17.883 7.0102 38.922 10.598 58.094 0.9771 1.4091 1.9312 2.8218 2.8468 4.2437-4.2498-20.306-7.898-42.914-12.376-62.572-2.7093-11.893-5.7049-22.557-9.2859-30.651-3.568-8.0655-7.7146-13.56-12.69-15.175zm34.352 108.4c0.9291 4.4393 1.8753 8.8052 2.8782 12.965l-2.1279 0.49698c-1.2584-5.595-2.4468-11.559-3.5971-17.706-2.5956-3.7431-5.3852-7.4354-8.4512-10.999-4.8336-5.6351-10.443-11.089-17.023-15.626-5.8009-4.0298-12.64-7.2969-20.265-8.6224-7.5528-1.2365-15.457-0.22271-22.613 2.9385-8.9047 4.0192-16.239 10.482-22.265 17.771-8.6936 10.399-15.326 22.244-21.054 34.688-6.3155 13.773-9.4989 27.912-13.242 42.21-3.5917 13.324-7.5963 26.867-15.086 37.761-1.0751 1.6482-2.6922 3.2538-4.5308 5.0422-2.0046 1.9082-4.1699 3.7376-6.4367 5.5537-1.8414 1.4728-3.7271 2.9081-5.6526 4.3112-0.58373 0.42525-1.1664 0.84354-1.7491 1.2545-0.15307 0.10796-0.30478 0.21491-0.45356 0.31846 0.0226-0.0124 0.0532-0.0235 0.0748-0.0362-0.0321 0.0167-0.0635 0.0329-0.0941 0.0483 6e-3 -4e-3 0.0132-7e-3 0.0193-0.0123-0.68423 0.37617-1.8311 0.61775-3.3221 1.0084-2.4206 0.61977-4.9826 1.0793-7.6623 1.5102-7.9522 1.2701-16.08 2.0276-24.437 2.7093-11.404 0.92541-22.897 1.5691-34.594 2.1013-11.401 0.5184-22.877 0.91334-34.478 1.2256-2.8071 0.0756-5.6093 0.14633-8.4077 0.21231-35.366 0.83405-70.196 0.97374-103.7 0.76959-23.122-0.14106-45.561-0.47458-67.462-0.93847v11.291c2.8856 0.22009 5.8384 0.44158 8.6996 0.66104 19.104 0.50311 38.653 0.87226 58.661 1.0856 33.606 0.3587 68.545 0.30488 104.09-0.5211 2.8119-0.0653 5.6287-0.13635 8.4511-0.21231 11.664-0.31391 23.22-0.71878 34.714-1.2569 11.782-0.55121 23.426-1.2295 35.033-2.2027 8.4577-0.70561 16.9-1.531 25.366-2.9071 2.8454-0.45956 5.7683-1.0027 8.7407-1.766 1.9341-0.48725 4.2395-1.2167 6.7406-2.5115 0.043-0.0278 0.0876-0.0543 0.13028-0.082 0.12068-0.0782 0.24039-0.15681 0.35946-0.23401 0.18116-0.12722 0.35833-0.25185 0.53317-0.37636 0.63966-0.45552 1.2728-0.91409 1.8963-1.3727 2.0556-1.5118 4.0772-3.0671 6.0627-4.6707 2.4358-1.9643 4.851-4.0331 7.1822-6.2678 2.0768-1.9528 4.2446-4.2348 6.1713-7.0567 8.6049-13.073 13.03-27.814 16.461-41.493 3.7771-14.621 6.5965-28.105 12.222-40.444 5.4436-11.986 11.405-23.053 19.139-32.434 5.4062-6.4781 11.338-12.038 18.205-15.09 5.264-2.4073 11.17-3.2817 16.656-2.427 5.7199 0.81483 11.276 3.443 16.314 6.7334 5.7279 3.7749 10.812 8.5875 15.385 13.686 4.9296 5.5142 9.2565 11.459 13.088 17.501 3.7198 5.8731 6.963 11.827 9.7202 17.826 3.2001 5.4804 5.9973 10.732 8.0579 16.012 89.199-25.953 142.17-43.02 141.67-44.688-0.50217-1.6694-53.876 13.263-138.82 39.691-0.48859-5.0784-1.6011-9.8719-2.9385-14.569-2.7861-6.4326-6.0875-12.815-9.8963-19.1-0.75991-1.2557-1.5612-2.5079-2.3667-3.7588zm-437.03 132.91c-2.93-0.0772-5.7912-0.17464-8.6996-0.25815v11.752c31.016 2.1676 60.819 4.1868 88.531 5.988 6.4421 0.35218 12.802 3.1658 18.125 7.0205 5.2541 4.0868 9.5312 9.0762 10.265 14.461 1.4221 8.1632 4.0189 15.799 6.9674 22.75 3.5218 8.3314 7.6752 16.078 11.889 23.136 10.188 17.068 21.728 31.987 31.344 43.532 11.712 14.069 22.359 25.175 29.747 32.398 4.1002 4.0093 7.3824 7.0002 9.7612 9.0036 0.67606-0.24086 1.3499-0.48601 2.0193-0.74065-0.1547-0.19862-0.27193-0.35983-0.44149-0.57418-1.9035-2.4063-4.8156-5.8934-8.4946-10.314-6.4132-7.7056-16.487-19.795-27.187-34.048-8.8742-11.827-19.67-26.991-28.946-43.744-3.8433-6.9436-7.5928-14.443-10.671-22.321-0.64589-1.6596-1.2695-3.3432-1.8577-5.0495-0.19924 2e-3 -0.40153 6e-3 -0.60072 0.01 0.19711-0.0111 0.39633-0.0246 0.59349-0.0362-1.7438-5.0627-3.1766-10.312-3.959-15.643-1.5717-8.9034-7.0547-16.343-13.961-21.411-6.5481-5.0828-14.749-8.7795-23.78-9.5585-25.367-2.0601-52.449-4.1896-80.644-6.3522zm122.35 52.965c2e-3 9e-3 4e-3 0.0179 7e-3 0.0266 72.241-1.0776 147.69-2.2272 220.77-14.384 0.43497-1.054 0.89859-2.1525 1.3269-3.1942 2.8e-4 -1e-3 2e-3 -0.0138 2e-3 -0.0144 3.7e-4 -1e-3 6e-3 -0.0345 7e-3 -0.0362-0.0194 0.0489-0.0384 0.0992-0.0579 0.14958 0.0441-0.19547 0.0884-0.38929 0.13269-0.58143 0.16941-0.73729 0.34224-1.4704 0.51628-2.1978 0.36052-1.5068 0.74552-2.9822 1.1218-4.4704-73.302 15.97-149.76 20.367-223.83 24.702zm257.39-269.89c-3.1289-0.23438-6.2611-0.47276-9.4017-0.71653-16.963 6.1953-33.877 11.446-49.648 18.113-21.367 9.033-43.36 21.556-69.211 45.049 1e-3 1.8e-4 4e-3 -1.7e-4 5e-3 0 26.305-22.964 48.581-34.814 69.995-43.115 20.294-7.8662 37.236-11.838 58.261-19.332zm-753.21 162.61c-0.06794 0.81568-0.1306 1.6323-0.19541 2.4487 0.01865 0.024 0.02927 0.0458 0.0483 0.0699 1.4115 1.8053 3.3469 3.5971 6.1086 5.4789 5.42 3.7061 11.821 6.6538 21.291 9.8939 9.1894 3.1614 19.267 5.8669 31.785 8.6128 12.254 2.6902 25.424 5.0849 40.56 7.4113 4.9215 0.75658 9.94 1.478 15.011 2.1834 4.8559 0.30672 10.296 0.6733 15.291 0.99397v-7.2352c-10.045-1.015-19.772-2.0934-29.286-3.269-15.135-1.8705-28.154-3.7768-40.408-5.959-12.55-2.2377-22.405-4.384-31.626-6.9771-9.5829-2.7144-15.594-4.9162-21.168-8-2.789-1.5486-4.667-2.8944-6.2002-4.3571-0.4748-0.45633-0.86096-0.88386-1.2111-1.2955zm114.61 36.099c-17.846-1.1272-34.744-2.1611-50.497-3.0881-7.3385-0.0803-13.132 3.7806-16.635 8.2268-4.0998 4.6509-6.8162 10.472-7.3245 16.659-0.29896 4.5533-0.19408 9.053 0.11821 13.399l1.2907 0.67552-1.2762-0.49698c0.41857 5.7084 1.2002 11.14 1.9952 16 1.9632 12.148 4.636 23.456 6.953 32.355 6.9394 23.593 11.294 36.732 12.253 36.485 0.95936-0.24734-1.5811-13.852-6.8926-37.778-1.6757-8.8648-3.7101-20.272-5.0567-32.065-0.95827-8.5175-1.9344-18.455-0.92401-27.853 0.35716-3.9515 2.5469-7.9403 5.6212-11.411 2.8803-2.7809 6.3703-5.4128 9.187-4.7527 20.22 1.767 42.862 3.6591 66.478 5.5947v-9.9276c-5.1899-0.65192-10.285-1.3254-15.291-2.0217zm-74.323 35.375c-0.0049-0.0595-0.0099-0.11883-0.01445-0.17854l-43.327-22.721c-0.0898 1.9941-0.14408 3.987-0.15681 5.9783l43.498 16.922zm805.88-364.17c-12.775-0.03619-22.56 2.8178-29.23 14.367-6.6414 11.499-10.078 31.45-10.514 65.129-0.2733 12.428 3.4026 34.775 7.0832 54.015 3.684 19.257 7.389 35.441 7.2183 35.498l2.5573 1.5971 70.741-14.581-1.3945-6.2992-68.328 16.22c-1.2992-4.9162-4.4716-18.053-7.6309-33.071-4.027-19.143-8.0085-41.285-8.0965-53.361 0.0771-33.602 3.1499-53.26 9.3028-64.62 6.1268-11.312 15.417-14.569 28.292-14.893zm11.969 3.0519c-0.0304 0.1187 6.5962 1.9457 14.084 4.5476 3.7458 1.3016 7.6987 2.793 11.139 4.3595 3.4593 1.5753 6.3314 3.1962 7.9542 4.7238 0.01 0.01 0.0163 0.0146 0.0266 0.0241-0.1045-0.24384-0.20277-0.4795-0.25332-0.68274-0.0276-0.11068-0.0665-0.29753-0.0628-0.50664 1e-3 -0.10253 0.0137-0.28723 0.0868-0.47769 0.0298-0.0774 0.0854-0.16171 0.13993-0.24366-1.8897-1.3247-4.5229-2.6275-7.4499-3.848-3.5304-1.4721-7.556-2.8604-11.349-4.0482-7.5895-2.377-14.286-3.9667-14.316-3.848zm33.115 11.744c0.37427 0.26236 0.73085 0.52517 1.0422 0.7889 0.34172 0.28816 0.59015 0.476 0.83473 0.66103 0.11859-0.12433 0.21233-0.25541 0.25815-0.37394 0.0644-0.1663 0.0723-0.32394 0.0747-0.38842 5e-3 -0.15569-0.0146-0.19671 0-0.193 0.0111 2e-3 0.10091 0.17223 0.2316 0.39806 0.21447 0.37072 0.69848 1.1271 1.1822 1.8794 4e-3 -0.11067-6e-3 -0.20349-0.0145-0.25573-0.0382-0.23275-0.13293-0.45619-0.20989-0.62003-0.0862-0.18358-0.19377-0.37546-0.3088-0.56453-0.22668-0.37251-0.51316-0.78007-0.7696-1.0929-0.12253-0.1494-0.2712-0.319-0.4246-0.45115-0.0725-0.0624-0.19687-0.16135-0.36431-0.23644-0.0999-0.0448-0.59757-0.2624-1.1435 0.0651-0.1773 0.10635-0.29488 0.243-0.38842 0.3836zm3.6236 2.772c-4e-3 0.10339-0.0173 0.2221-0.0651 0.34741-0.13411 0.35164-0.448 0.57288-0.77685 0.61278-0.25009 0.0303-0.44505-0.0468-0.54522-0.0893-0.12576-0.0534-0.22777-0.11141-0.33535-0.18334-0.38053-0.25441-0.97865-0.76947-1.8118-1.5489 0.0221 0.0516 0.0289 0.0912 0.0531 0.14476 0.56164 1.243 1.9712 3.6604 4.9626 8.1882 1.4128 2.1426 3.0812 5.5435 4.9554 9.971 1.8729 4.4245 3.8793 9.7026 5.9855 15.631 4.1954 11.809 8.6799 25.883 12.789 39.414 6.7765 22.314 12.523 43.115 14.261 49.73l-37.373 9.7177 1.585 5.6719 39.047-11.674c1.9445-0.57325 3.333-3.0256 1.5368-2.7141-0.12167 0.0206-7.0718-24.769-15.542-51.814-4.234-13.52-8.8502-27.616-13.187-39.455-2.1601-5.8971-4.279-11.308-6.222-15.742-1.9424-4.4331-3.7779-8.045-5.3993-10.386-1.9569-2.8208-3.0876-4.5299-3.918-5.8215zm-1.7467-1.3221c-0.0684 0.0718-0.13517 0.14491-0.2316 0.20266-0.49405 0.29584-0.90399 0.11043-0.96985 0.0795 0.0211 0.0162 0.024 0.0111 0.0458 0.0289 0.21702 0.18238 0.48944 0.4709 0.71653 0.73824 0.1171 0.1378 0.20619 0.25049 0.27986 0.3474 0.0739 0.0972 0.0986 0.14067 0.0941 0.0676-3.6e-4 -6e-3 -0.0243-0.19098 0.0531-0.39083 0.11611-0.29948 0.39107-0.49087 0.65862-0.52111 0.0867-0.01 0.14379 1e-3 0.1906 0.0123-0.15896-0.0719-0.45816-0.27783-0.83716-0.56455zm0.83717 0.56454c5e-3 2e-3 0.017 0.0125 0.0217 0.0145 0.0582 0.0246 0.0918 0.032 0.0772 0.0193-5.3e-4 -4.2e-4 -0.0379-0.0195-0.0989-0.0337zm-2.0386-0.28227c-0.0739-0.0569-0.15538-0.11821-0.15922-0.10376-8.4e-4 2e-3 0.0171 0.0409 0.1351 0.0965 1e-3 7e-4 0.0215 6e-3 0.0241 7e-3zm2.1231-8.7189c23.608 41.517 42.894 83.631 50.895 127.51 0.0186 0.1024 0.0446 0.18873 0.0603 0.20024 1.4e-4 4e-5 2e-3 4e-5 2e-3 0 1.4e-4 4e-5 2e-3 4e-5 2e-3 0-0.12997 0.0531 3.9413 9.0945 8.5887 20.514 4.6593 11.448 9.8553 25.195 12.005 34.663 3.0479 13.774 5.5058 27.799 3.5223 41.25-3.0448 22.98-15.361 55.826-27.066 83.086-11.503 26.788-22.295 47.922-22.704 48.427 0.99659 0.51276 1.9935 1.022 2.994 1.5271 1.0004 0.5051 2.0053 1.0032 3.0108 1.4982 0.20401-0.71384 10.799-22.067 22.128-49.153 11.46-27.4 23.78-60.907 26.651-84.75 1.5446-14.457-1.6872-29.114-5.2618-42.678-2.4926-9.6926-8.038-23.528-12.948-34.849-4.8683-11.225-9.1306-20.022-9.3559-20.176 9e-3 0.0427 0.0182 0.0851 0.0266 0.12787-1.8e-4 -6e-5 -2e-3 -6e-5 -2e-3 0-1.8e-4 -6e-5 -2e-3 -6e-5 -2e-3 0-0.0148-0.0133-0.0406-0.0992-0.0603-0.20024 1e-3 -6.3e-4 0.0359 0.0705 0.0385 0.0724-8.6096-43.958-28.481-85.922-52.524-127.07zm11.797 13.904c-0.0299 0.0636 2.6683 1.4082 5.8938 3.2618 3.2378 1.8606 6.9663 4.2135 9.0109 6.2774 5.1002 5.0976 8.2454 11.883 11.674 18.379 9.4241 17.345 19.854 34.51 23.739 53.53 0.89328 4.5615 0.78933 11.673 0.41979 17.742-0.26289 4.3174-0.65502 8.0344-0.88058 9.7853l-6.2292 2.1954 1.6236 3.8987 6.7624-3.2762c0.8763-0.42462 1.4481-1.1852 1.0302-1.3703-0.0678-0.0296 0.41549-4.9576 0.64655-11.088 0.22964-6.0922 0.21998-13.496-0.89263-18.413-4.2518-19.391-15.174-36.799-24.741-53.819-3.6425-6.2998-7.1272-13.14-12.567-18.174-2.2254-2.0425-6.103-4.308-9.392-6.0362-3.305-1.7366-6.069-2.9563-6.0989-2.8926zm-677.32 185.29c-2.5691 0.13738-3.5953 22.277-2.8492 53.609 0.12875 3.013 1.0138 5.9265 2.5935 8.4777 1.5949 2.5347 3.6081 4.6197 5.8311 6.2316 4.7981 3.4886 10.372 5.5519 16.072 6.3546 2.3286 0.3746 4.7472 0.55522 7.2111 0.49457 3.5152-0.0866 7.0251-0.661 10.42-1.7732 2.7634-0.90625 5.4505-2.2995 7.8842-4.2123 2.4526-1.9454 4.4338-4.4272 5.7998-7.2666 15.612-33.453 25.428-58.947 22.861-60.205-2.5663-1.2578-16.705 22.119-33.58 54.953-0.56116 1.0928-1.4755 2.1184-2.5742 2.9554-1.13 0.8794-2.5969 1.5565-4.2437 2.1062-2.0955 0.70028-4.3993 1.0343-6.8275 1.0736-1.7011 0.0274-3.4325-0.09-5.146-0.31363-4.1958-0.66145-7.9908-1.8427-10.856-3.889-1.2624-0.90531-2.3094-1.823-2.9481-2.8034-0.60459-0.88632-1.0167-1.8837-1.0977-2.7937-2.5997-31.233-5.981-53.136-8.5501-52.999zm24.297 22.217c-9.4019 0.0257-16.378 1.8156-16.601 4.5766-0.27438 3.3982 9.7822 6.9869 22.449 8.0097 12.667 1.0228 23.171-0.90582 23.445-4.304 0.27438-3.3982-9.7846-6.9845-22.451-8.0072-2.375-0.19176-4.6723-0.28096-6.842-0.27503zm-156.76 56.019c-2.4238 0.0576-3.7272 0.28597-3.7901 0.72135-0.23599 1.6325 19.431 6.2469 51.65 11.139 33.165 5.0355 75.978 9.8222 126.52 13.054 49.438 3.1617 94.7 4.0943 127.12 3.9421 32.562-0.15287 52.703-1.3792 52.738-3.0495 0.0363-1.7374-20.041-3.5995-52.48-5.6816-64.658-4.15-45.015-2.3286-126.59-7.5392-53.974-3.4476-89.352-6.3606-126.29-9.3945-24.241-1.9909-41.602-3.3646-48.873-3.1918zm-95.742 130.1c-1.0293 0.20912-0.54687 7.5522 1.1773 20.384 2.0483 11.27 6.1905 27.689 14.282 45.551 7.004 15.499 17.696 33.333 33.92 48.012 7.6059 6.8564 16.491 12.949 26.504 17.542 5.5068 2.5162 11.299 4.546 17.298 6.0603 5.4279 1.3701 10.896 2.2848 16.328 2.7793 22.888 2.1076 44.326-0.23873 63.204-5.8987 17.961-5.4702 32.752-13.588 44.142-21.846 20.659-20.827 32.419-33.818 31.206-34.888l-2e-3 -2e-3 -2e-3 -2e-3c-1.2494-1.0301-15.189 9.9778-36.425 28.304-11.247 6.8916-25.296 13.561-41.906 17.824-17.702 4.6392-37.641 6.347-59.057 4.263-4.8242-0.47587-9.6719-1.3016-14.468-2.509-5.3015-1.3347-10.405-3.103-15.24-5.2786-8.8093-3.947-16.776-9.256-23.723-15.247-14.877-12.781-25.47-29.111-32.971-43.403-8.5703-16.363-13.989-31.991-17.426-42.55-3.3941-12.36-5.8154-19.304-6.8444-19.095z" color="#000000" color-rendering="auto" image-rendering="auto" shape-rendering="auto" solid-color="#000000" style="block-progression:tb;isolation:auto;mix-blend-mode:normal;text-decoration-color:#000000;text-decoration-line:none;text-decoration-style:solid;text-indent:0;text-transform:none;white-space:normal"/>
</svg>
